<svg xmlns="http://www.w3.org/2000/svg" version="1.1" xmlns:xlink="http://www.w3.org/1999/xlink" width="2000" height="373" viewBox="0 0 2000 373"><svg xml:space="preserve" width="2000" height="373" data-version="2" data-id="lg_Tq7WShewq8ejwZ4dZ8" viewBox="0 0 552 373" x="0" y="0"><rect width="100%" height="100%" fill="transparent"></rect><path fill="#000000" d="m35.673 246.645 1.94-4.11q.61-1.69.55-2.66-.07-.97-.07-1.58 0-.6-.12-1.51t-.78-1.81q-.67-.91-1.33-1.21-.67-.31-2.48-1.03l-2.67-.12q-3.63-.73-6.17.6 0 2.66-1.33 11.13l-.72 8.35-.61 4.36q.85 0 4.36-1.33l1.69-1.45q.48-.12 3.03-2.67.6-.24 1.33-1.21l1.21-1.45q.36.12 1.33-1.21Zm-14.03 32.31.24 2.9q.48 1.09 0 3.15-.48 2.06-.12 3.15 0 2.05.12 2.42 1.09 0 3.33-.97t2.84-1.09q.61-.12 1.57-.97 3.03-1.57 6.3-3.63l2.78-2.54q3.51-4.23 4.84-6.17l.73-2.18q1.57-3.39-3.03-6.41-.97-1.45-3.99-1.94h-.12q-4.24-1.21-4.96-.97l-5.33 1.21q-1.45.73-2.6.73-1.15 0-2.48-1.09l.12 3.39q-.85 2.3-.48 4.48.48 2.17.24 6.53m5.32 21.54h-1.09q-1.21.24-4.72-.36-6.17-.97-9.92-3.88-1.09-.96-2.48-2.6-1.39-1.63-1.39-2.24 0-.6.06-1.57.06-.97-.18-1.94v-.96q-.36-.73.12-2.61.48-1.87.24-3.08-.24-1.57-.36-3.39-.36-.48.36-2.66.97-16.34.97-17.91l.61-3.63q-.61-3.63.24-6.29v-2.66q-.12-1.7.97-9.8-.49-1.46-3.27-3.75-.61-.61-1.21-1.88-.61-1.27.48-4.05.73-.97 4.24-3.15.24-.73 6.53-2.78l2.3-.97q1.69-.61 6.78-.48 2.78.36 4.47 1.08 6.17 3.03 11.38 6.9 1.57.73 2.18 1.94 2.17 1.45 4.05 4.66 1.88 3.2 2.12 4.05.6 3.87-1.21 9.32-.85 2.78-7.99 11.61 1.21.37 4.11 2.06.37.48 2.55 1.69.24.37.66.85.42.48.67.85l.97.6 1.2 1.82 1.82 1.57q1.21 1.21 1.94 2.66 1.81 1.7 1.93 2.79l.24 2.29q-.12 1.34-3.63 8.72-1.33 2.66-3.38 4.11l-1.82 2.18q-.73.97-2.72 2.42-2 1.45-3.33 2.78-.6.24-1.87 1.09-1.28.85-3.76 2.06-2.48 1.21-3.32 1.45-2.42.73-6.54 1.09"></path><rect width="51.83" height="82.86" x="-25.91" y="-41.43" fill="none" rx="0" ry="0" transform="translate(31.92 259.72)"></rect><path fill="#000000" d="M86.494 261.045q-.84-4.84-4.71-4.47-2.18.12-3.76 2.9-2.17 4.23-1.87 10.95.3 6.72.97 9.68.66 2.96 2.36 5.14.97 1.7 2.9 1.58 3.39 0 4.96-5.69l.97-2.91q.61-.6.24-1.21 1.21-3.02 1.33-7.13-1.21-.85-1.45-1.58-.73-2.05-.73-2.78-.84-.61-.96-2.3t-.25-2.18m-22.14 11.38.49-6.17q.84-8.35 5.08-14.28 4.11-4.96 11.61-5.08h.73q7.02 0 10.16 3.02 3.39 2.66 5.03 5.81 1.63 3.14 2.11 4.6.49 1.45.61 4.23.24 5.2-2.06 5.93 1.69 11.5-2.06 18.27-1.21 2.78-3.51 6.05-1.69 2.18-6.05 2.42-4.35 0-7.56-.48-3.2-.49-7.08-3.09-3.87-2.6-5.44-8.53-1.7-5.69-2.06-12.7"></path><rect width="35.92" height="50.33" x="-17.96" y="-25.16" fill="none" rx="0" ry="0" transform="translate(82.81 272.56)"></rect><path fill="#000000" d="M135.984 265.165q.12-.37.49-4.24-.24-.36-.61-2.66-.97-1.94-2.54-2.9-1.93-.85-2.3-.85-1.09.36-1.51.78-.42.43-2.06 3.45-1.63 3.03-2.66 10.05-1.03 7.01-1.03 10.16 0 3.15.24 7.68.25 4.54 1.94 4.3 1.57-.24 4.36-8.71.12-.61.84-2.18Zm14.16-4.96q0 6.41 1.33 11.73.61 5.33 2.18 11.38.36 2.42.24 2.42 3.03 6.65 3.39 7.92.36 1.27-.12 2.12v-.12q-.36 1.09-2.24 1.99-1.88.91-3.33 1.15-4.59 1.46-5.44-3.5-.49-.37-1.39-1.52-.91-1.15-1.03-1.93-.12-.79-.85-1.52-.24-.6-1.09-1.57-.84-.97-.97-1.93l-.36-3.27-.24-.12q-1.94 3.99-2.54 5.56-1.45 4.12-5.08 9.44-4.12 4.6-10.05 2.66-2.18-.12-3.45-1.33t-1.75-1.33q-.73-.24-2.06-1.81-2.18-2.91-2.66-8.59v-3.15q.36-.61 0-5.81v-.72q-.73-3.63-.73-4.36 0-.73.25-1.94.24-1.21.12-1.51-.12-.3-.12-1.03v-1.81l.6-6.54q1.33-4.23 2.91-7.62.48-2.06 1.81-3.27 3.03-3.26 3.27-3.75.84-1.81 6.29-2.9l2.06.12q1.21 0 2.17.3.97.3 1.34.3 1.69.85 2.78.85 1.09 0 3.63 1.7.72.12 3.63 2.05 3.14 2.06 3.63 2.3l3.14 1.09q1.34 1.09 1.34 1.21 0 .12-.61 6.66"></path><rect width="45.64" height="58.7" x="-22.82" y="-29.35" fill="none" rx="0" ry="0" transform="translate(135.22 273.47)"></rect><path fill="#000000" d="M165.873 261.045q0-1.09-.24-2.54v-.85q.12-.84-.12-1.81 0-1.21.24-2.18 0-2.42.6-3.14 0-.61 1.7-2.79.48-.48 1.81-1.57 1.94-.61 2.67-.73.48-.48 3.26.37 1.21.12 3.75.84.85.25 2.18 1.94-.24.48-.78 3.57-.55 3.08-.43 5.02.73-.6 2.54-2.54 1.82-1.94 1.94-2.06 3.14-1.45 6.17-2.05 4.36-.37 5.69.6 1.09.36 1.69 1.09 1.09.97 1.82 3.33.72 2.36-.13 2.96-.72.61-4.84.97-.24 0-1.69.97l-6.29 4.96q-1.94.97-2.66 1.69l-2.3 4.24q-.12.24-.24 3.14-.13 2.91 0 4.18.12 1.27 0 8.17v5.2q0 4.23-.13 4.9-.12.66-.96 2.36-.37.6-2.3.6-4.72 3.51-6.05-.36l-1.58-.97q-.96-.48-1.21-1.21-.96-1.33-.96-1.57l-.49-1.69-.72-1.46q-.37-.12-.61-4.66-.24-4.53-.24-5.56 0-1.03-.24-2.24.84-.85.78-2.9-.06-2.06-.3-3.21t0-1.45q.24-.3-.12-3.33-.36-.48-.12-1.81Z"></path><rect width="35.38" height="57.36" x="-17.69" y="-28.68" fill="none" rx="0" ry="0" transform="translate(183.7 274.3)"></rect><path fill="#000000" d="M220.444 276.055q0 1.57-.24 3.87t1.21 7.38q.61 3.51 1.21 4.48.85 0 1.57-1.82 0-.12.85-1.69.36-.12 2.42-3.39.73-1.45 1.45-2.9.37-2.55 1.7-4.54 1.33-2 2.05-3.51.73-1.51.61-4.05 0-.97-.85-5.81-.24-.61-.91-2.73-.66-2.11-1.69-3.02-1.03-.91-2.12-.79t-2.66 3.39q-1.94 3.87-2.78 7.5-.85 3.63-1.09 4.36-.36 1.09-.36 1.94Zm15.25-62.44q2.54-.36 3.08-.3.55.06 2.48-.3 2.55 3.02 3.15 4.47l.85 3.15q.97.97.97 1.81.24 1.82.42 3.09.18 1.27.18 3.45 0 3.14-.85 14.21-.84 11.08-1.57 15.92l.73 6.65q1.81 9.92 2.3 10.77.72 4.6 3.02 8.47l.24.97 1.82 3.02q.84 1.82.78 3.63-.06 1.82-.42 2.54-1.69 3.39-3.39 3.63-.84.37-2.66 0-1.57 0-2.3-.72-.36 0-.97-.12-1.81.36-2.3-.85-.72-.73-1.63-2.6-.91-1.88-2.12-3.21l-.6-1.33q-.49-2.18-.55-2.24-.06-.06-.18-.54l-4.23 6.65q-.24.85-3.15 4.84l-1.57 1.33q-1.45.73-4.24.37-.24.12-2.05.12l-6.78-1.21q-2.18-1.45-3.75-4.6-.97-1.69-.97-2.78 0-1.21-1.09-4.72l-.24-1.82v-.72l-.12-1.7q.24-.48-.24-2.05l-.12-1.09v-2.06q0-.73.36-2.78.12-1.58.06-3.57-.06-2 .06-2.85-.24-1.21.12-2.05-.24-.85.12-2.91 0-1.33 2.06-6.05-.36-1.93 1.69-4.35 0-.12 1.21-1.82.37-.36 1.82-.97l2.9-1.93q4.6-1.33 8.47-.49l4.84 1.7q.24-1.82-.12-11.98 0-1.45.42-6.35.43-4.9.67-9.5l1.45-5.08q0-1.33.49-1.94Z"></path><rect width="45.69" height="87.6" x="-22.85" y="-43.8" fill="none" rx="0" ry="0" transform="translate(230.97 257.31)"></rect><path fill="#000000" d="m261.463 262.865 1.33-6.17.12-2.67q.25-.12.61-1.57.6-4.48 4.96-4.48 2.3.13 4.96 1.34.97 0 1.45.84.61.12 1.09.73.49.6.12 1.63-.36 1.03-.42 1.7-.06.66-.67 4.29-1.69 9.08-1.45 12.22l6.53-9.92 2.43-4.36q2.05-1.08 3.75-1.45.84 0 1.93.37 3.51.48 3.51.96l1.45.97q1.46 1.7 1.52 2.78.06 1.09-.25 2.12-.3 1.03-.78 2.6 0 .12-2.54 13.8l4.84-10.41 1.21-1.57q0-1.09 2.42-4.6l1.21-2.18q0-.36.84-1.21.37 0 .73-1.09 1.57-2.42 2.9-3.02 2.06-.73 5.08-.24l1.58.72q.48.97.72 1.09h.37q1.45 1.33 1.09 3.03-.49 2.3-.49 3.02l-1.33 9.44q-.24.24-.24.73-.24.24-.67 6.53-.42 6.29-.42 12.34l.12 1.45.61 2.06.84 1.94q.25 1.45-.66 2.48t-2.24 1.03q-8.23-.25-8.96-5.21-.36-.6-.36-1.33 0-.72-.48-2.18v-1.33l.24-1.81q-.36 0-.36-3.94 0-3.93.24-4.53.48-2.06.48-4.36-.36.49-1.21 1.45-1.69 1.94-2.18 2.91l-2.29 4.84q-2.67 6.05-4 7.74-1.33 1.7-4.35 1.57-3.03-.12-3.75-.84-.97-.49-1.52-.79-.54-.3-.42-2.72v-1.21l1.57-9.92q.73-2.67.73-3.15l.48-2.9v-2.3l-1.21 1.69-1.09 2.18q-.48.48-.48 1.21-.61.36-.97 1.33l-4.72 9.56q-2.05 4.23-2.3 6.41-.72 1.21-1.75 2.79-1.03 1.57-2.18 1.39-1.15-.18-1.63-.55-.49-.36-.37-.97-1.45.61-2.29-.96l-2.91-3.75q-.48-.37-.48-1.34.36-1.45 0-2.42-.37-.96-.24-1.57-.25-1.09-.25-3.02 0-2.3-.36-3.39 0-.97.24-1.94v-1.21q-.24-5.32.73-6.29-.73-1.09.12-4.96Z"></path><rect width="54.05" height="52.16" x="-27.02" y="-26.08" fill="none" rx="0" ry="0" transform="translate(287.78 274.56)"></rect><path fill="#000000" d="M349.074 262.015q-.13-2.66-1.21-4.05-1.09-1.39-4-1.64-.84.61-2.24 4.06-1.39 3.45-1.75 7.32-1.21 5.81-1.21 11.61.12 5.93 1.94 8.72.24.48.48.36.6 0 1.94-2.42 6.41-11.62 6.05-23.96m3.75 23.11-1.82 4.72q0 .24-3.51 5.2-1.09 2.3-4.05 2.54-2.97.25-5.75-.6-3.75-1.33-5.69-3.15-1.93-1.81-3.81-6.11-1.87-4.29-1.99-7.08-.61-3.99-.61-5.08v-2.9q0-4.36.36-5.08.13-.49.61-2.54.6-5.09 2.9-9.68 4.48-8.84 9.2-9.08h.6q.25.12.73.12h1.57q4.24.36 5.21.73 1.81.48 3.14.48l3.15.61q1.45-.12 3.81.6 2.36.73 2.54 1.09.18.36.67 2.66.48 2.3.66 3.33.18 1.03.3 2.12.97 8.83 3.15 16.45.12.37.24 1.09.12.73.85 2.85.73 2.11 1.09 3.57.36 1.45 1.33 3.87.73 1.81 2.18 4.23 2.66 3.75-2.79 5.81-.72.24-2.54.24-.36 0-2.3-1.21-1.21 0-2.29-1.33l-.97-.24q-.85-.85-1.46-.85-.24-.24-4.35-9.8-.36 1.33-.36 2.42"></path><rect width="46.03" height="51.45" x="-23.01" y="-25.72" fill="none" rx="0" ry="0" transform="translate(349.1 272.5)"></rect><path fill="#000000" d="M381.864 249.795q3.26-3.99 8.95-4.24 9.32-.36 13.85 4.6 4.54 4.96 4.84 9.8.31 4.84-2.48 5.21-3.99.12-5.2-1.09-1.09.12-2.78-1.58-.73-.36-1.94-2.78l-1.33-3.02q-.97-2.18-2.42-2.42-1.81.72-1.81 3.63.48 5.68 5.44 10.89l.18.3q.18.3 1.76 2 9.56 10.52 9.92 16.94 0 4.11-1.69 5.44-5.21 6.17-13.56 6.41-8.35.25-13.79-5.2-1.45-1.45-1.45-2.78-.73-2.3-.49-3.03-.36-3.39 0-5.08.73-3.87 5.69-3.99 1.82 0 2.3 2.18 1.57 6.17 2.96 8.1 1.4 1.94 4.54 1.82 3.99-.24 3.81-4.48-.18-4.23-4.05-7.86-1.21-1.46-2.36-2.24-1.15-.79-1.51-1.15-.12-.37-.61-.73-2.42-1.93-6.11-6.41-3.69-4.48-3.93-8.35-.48-6.9 3.27-10.89"></path><rect width="32.05" height="54.55" x="-16.02" y="-27.27" fill="none" rx="0" ry="0" transform="translate(394.12 273.2)"></rect><path fill="#000000" d="m441.093 224.025-.16 1.51q-.15 1.51-.15 2.9t-.12 2.48v3.15l-.12.85v2.54q0 1.09-.12 2.18l4.24-.85q.48 0 3.5-.61 3.03-.6 5.51-.54 2.48.06 3.39 1.03.91.97.91 2.78.24 1.45-.85 2.78l-.49.73q-.96 1.57-2.78 2.06l-4.23.6-5.45 1.33-3.27 1.21q.13 3.03.43 6.66.3 3.63.3 5.08l.36 4.48q1.58 10.64 4.12 21.78.72 1.09 1.57 4.96l.97 2.54q.48 4.11-5.08 4.11-.97 0-4.84-.48-1.09-.12-3.15-2.18 0-.24-1.33-1.57l-2.3-5.57q-.24-.36-.6-2.3-1.34-1.33-2.18-6.05 0-.24-.25-1.21v-1.69q-.84-.85-1.2-4.72-.37-3.87-.85-7.26 0-4.72-.73-9.08l-.24-2.66v-1.09q.12-1.21 0-1.21h-1.45q-1.82.25-3.03 0-5.32 0-7.38-3.02-1.45-3.27-.12-4.24 1.33-.96 6.54-1.93 2.29 0 5.92-1.58 0-3.02.37-3.38.36-2.79.78-3.57.43-.79.55-1.64.12-2.9 2.06-8.59.72-2.78 1.33-3.75 1.57-2.3 6.53-1.45 2.06.36 3.03 1.57.36-.12.06 2.91"></path><rect width="45.16" height="80.74" x="-22.58" y="-40.37" fill="none" rx="0" ry="0" transform="translate(436.02 259.9)"></rect><path fill="#000000" d="M488.094 258.025q.49-1.82-.12-4.6-.84-.73-2.3-.73-1.81 0-3.26 3.39-1.94 2.91-2.91 6.41h-.12q-1.33 5.09-1.33 5.45 1.94.48 3.15.42t2.78-1.27q2.78-2.66 4.11-9.07m-.36 17.42-4.48.36q-3.75 0-5.92-.72l.36 2.3q.36 10.04 5.56 13.19 1.46.6 2.42.6.97 0 2.55-.97.48-.48.84-1.33.12-1.09 1.21-.97 4.96-6.29 7.5-4.96 2.55 1.7 2.55 2.67 0 .48-.61 1.08v.73q0 1.21-1.51 4.36-1.52 3.14-3.21 5.32-.85 1.82-2.18 2.54-3.87 2.42-8.22 1.94-.97-.12-1.34-.49-.96-.24-1.45-.12l-.97-.12q-1.08 0-1.81-.48-1.21-.73-1.69-.73-3.15-1.21-3.82-1.81-.66-.61-1.15-.85-.48-.24-2.3-2.54-1.57-1.33-1.81-1.7-.73-1.08-1.27-1.57-.55-.48-.67-2.18-.48-.6-.48-1.57l-.48-.97q0-.84-.73-1.33-.73-.72-.73-1.81v-.97q-.48-.24-.24-1.45v-3.15l-.12-1.09v-.85q-.12-.48.24-2.05l-.12-1.09q.12-.12.37-1.94.48-2.54 1.08-3.14v-1.09q.13-.37.13-.97 0-.61.3-1.33.3-.73 1.87-5.45l1.94-4.23q.85-1.82 2.66-3.99.12-.61.97-2.18l1.57-1.45q.73-1.09 2.18-1.58 1.69-.84 2.54-.84l3.39-.49q.6.12.85.12h1.57q2.66.24 4.35 1.09 3.63 1.09 5.33 2.78 3.75 4.24 3.75 8.11 0 3.87-1.21 6.66-3.02 6.89-4.36 8.71-2.17 3.99-5.2 3.99"></path><rect width="36.86" height="57.85" x="-18.43" y="-28.93" fill="none" rx="0" ry="0" transform="translate(482.4 273.41)"></rect><path fill="#000000" d="M510.484 261.045q0-1.09-.24-2.54v-.85q.12-.84-.12-1.81 0-1.21.24-2.18 0-2.42.6-3.14 0-.61 1.7-2.79.48-.48 1.81-1.57 1.94-.61 2.66-.73.49-.48 3.27.37 1.21.12 3.75.84.85.25 2.18 1.94-.24.48-.79 3.57-.54 3.08-.42 5.02.73-.6 2.54-2.54 1.82-1.94 1.94-2.06 3.14-1.45 6.17-2.05 4.35-.37 5.69.6 1.08.36 1.69 1.09 1.09.97 1.81 3.33.73 2.36-.12 2.96-.72.61-4.84.97-.24 0-1.69.97l-6.29 4.96q-1.94.97-2.66 1.69l-2.3 4.24q-.12.24-.25 3.14-.12 2.91 0 4.18.13 1.27 0 8.17v5.2q0 4.23-.12 4.9-.12.66-.96 2.36-.37.6-2.3.6-4.72 3.51-6.05-.36l-1.58-.97q-.96-.48-1.21-1.21-.96-1.33-.96-1.57l-.49-1.69-.73-1.46q-.36-.12-.6-4.66-.24-4.53-.24-5.56 0-1.03-.24-2.24.84-.85.78-2.9-.06-2.06-.3-3.21t0-1.45q.24-.3-.12-3.33-.36-.48-.12-1.81Z"></path><rect width="35.37" height="57.36" x="-17.69" y="-28.68" fill="none" rx="0" ry="0" transform="translate(528.31 274.3)"></rect><path fill="#000000" d="M184.143 360.806v-24.68h2.9v22.16h12.46v2.52Z"></path><rect width="15.36" height="24.68" x="-7.68" y="-12.34" fill="none" rx="0" ry="0" transform="translate(192.32 348.97)"></rect><path fill="#000000" d="M215.463 361.116q-4.13 0-6.51-2.4-2.38-2.39-2.38-6.66 0-2.77 1.05-4.82 1.05-2.04 2.94-3.18 1.89-1.14 4.34-1.14 2.42 0 4.06 1.02 1.65 1.01 2.52 2.88.88 1.88.88 4.43v1.05h-13.62v-1.78h11.76l-.59.45q0-2.8-1.26-4.37-1.26-1.58-3.75-1.58-2.62 0-4.09 1.84-1.47 1.84-1.47 4.95v.32q0 3.29 1.63 4.98 1.62 1.7 4.56 1.7 1.58 0 2.96-.47t2.64-1.56l.98 2q-1.15 1.12-2.92 1.73-1.77.61-3.73.61"></path><rect width="15.79" height="18.2" x="-7.89" y="-9.1" fill="none" rx="0" ry="0" transform="translate(214.97 352.52)"></rect><path fill="#000000" d="M237.864 361.116q-2.59 0-3.95-1.49-1.37-1.48-1.37-4.49v-9.7h-3.43v-2.2h3.43v-4.8l2.84-.8v5.6h5.04v2.2h-5.04v9.38q0 2.1.72 2.99.71.9 2.15.9.66 0 1.19-.13.52-.12.94-.29v2.38q-.49.21-1.17.33-.68.12-1.35.12"></path><rect width="11.31" height="23.48" x="-5.66" y="-11.74" fill="none" rx="0" ry="0" transform="translate(235.27 349.88)"></rect><path fill="#000000" d="m248.993 345.826-.73-9.7h3.32l-.66 9.7Z"></path><rect width="3.32" height="9.7" x="-1.66" y="-4.85" fill="none" rx="0" ry="0" transform="translate(250.42 341.48)"></rect><path fill="#000000" d="M267.333 361.116q-2.1 0-3.92-.58-1.82-.57-3.01-1.62l.98-2q1.3 1.02 2.82 1.51 1.52.49 3.17.49 2.1 0 3.17-.76 1.06-.75 1.06-2.08 0-1.01-.68-1.63-.68-.61-2.22-.96l-3.26-.66q-2.24-.49-3.36-1.67-1.12-1.17-1.12-2.99 0-1.54.81-2.71.8-1.17 2.34-1.86 1.54-.68 3.61-.68 1.92 0 3.55.58t2.71 1.66l-1.01 1.96q-1.05-1.01-2.4-1.52-1.35-.51-2.78-.51-2.07 0-3.1.82-1.03.83-1.03 2.16 0 1.01.65 1.66.64.65 2.01.96l3.25.67q2.38.52 3.56 1.62 1.17 1.11 1.17 2.96 0 1.58-.88 2.75-.87 1.17-2.43 1.8-1.56.63-3.66.63"></path><rect width="13.9" height="18.2" x="-6.95" y="-9.1" fill="none" rx="0" ry="0" transform="translate(267.85 352.52)"></rect><path fill="#000000" d="M297.853 368.366v-21.07q0-.98-.08-2.02-.09-1.03-.2-2.04h2.73l.39 4.16h-.42q.56-2.06 2.27-3.27 1.72-1.21 4.1-1.21t4.11 1.09q1.73 1.08 2.71 3.11t.98 4.9q0 2.84-.96 4.87-.96 2.03-2.71 3.13t-4.13 1.1q-2.35 0-4.06-1.19-1.72-1.19-2.28-3.25h.39v11.69Zm8.23-9.56q2.52 0 4.01-1.73 1.48-1.73 1.48-5.06 0-3.36-1.48-5.09-1.49-1.73-4.01-1.73-2.49 0-3.97 1.73-1.49 1.73-1.49 5.09 0 3.33 1.49 5.06 1.48 1.73 3.97 1.73"></path><rect width="16.87" height="25.45" x="-8.44" y="-12.72" fill="none" rx="0" ry="0" transform="translate(306.5 356.14)"></rect><path fill="#000000" d="M323.793 360.806v-25.76h2.83v25.76Z"></path><rect width="2.83" height="25.76" x="-1.42" y="-12.88" fill="none" rx="0" ry="0" transform="translate(325.7 348.43)"></rect><path fill="#000000" d="M343.743 361.116q-2.35 0-4.1-1.1-1.75-1.1-2.71-3.13t-.96-4.87q0-2.87.96-4.9.96-2.03 2.71-3.11 1.75-1.09 4.1-1.09 2.38 0 4.11 1.21 1.73 1.21 2.29 3.27h-.42l.39-4.16h2.73q-.11 1.01-.19 2.04-.09 1.04-.09 2.02v13.51h-2.84v-4.13h.39q-.56 2.06-2.31 3.25t-4.06 1.19m.56-2.31q2.52 0 3.99-1.73 1.47-1.73 1.47-5.06 0-3.36-1.47-5.09t-3.99-1.73q-2.49 0-3.97 1.73-1.49 1.73-1.49 5.09 0 3.33 1.49 5.06 1.48 1.73 3.97 1.73"></path><rect width="16.87" height="18.2" x="-8.44" y="-9.1" fill="none" rx="0" ry="0" transform="translate(344.9 352.52)"></rect><path fill="#000000" d="m362.113 368.746-.66-2.34q1.64-.39 2.75-.9 1.1-.5 1.83-1.34.74-.84 1.26-2.1l.91-2.07-.07 1.19-7.66-17.95h3.08l6.33 15.43h-.91l6.27-15.43h2.97l-8.12 19.04q-.7 1.68-1.54 2.81-.84 1.14-1.8 1.86-.96.72-2.12 1.14-1.15.42-2.52.66"></path><rect width="17.74" height="25.51" x="-8.87" y="-12.76" fill="none" rx="0" ry="0" transform="translate(369.84 356.49)"></rect><path fill="#000000" d="M287.674 60.97a14.643 14.643 0 0 1-.846-.024c-9.772-.566-17.156-10.844-16.459-22.912.693-12.06 9.135-21.4 18.975-20.868 9.772.56 17.157 10.835 16.464 22.906-.675 11.717-8.642 20.898-18.134 20.898m.827-36.31c-5.42 0-10.187 6.195-10.626 13.808-.45 7.797 3.851 14.654 9.39 14.972l.41.008c5.422 0 10.191-6.194 10.628-13.807.448-7.794-3.854-14.65-9.387-14.97zM177.456 65.985c-10.118 0-18.67-8.81-19.892-20.497-.613-5.862.733-11.607 3.791-16.175 3.206-4.783 7.885-7.723 13.17-8.278 10.84-1.143 20.37 8.044 21.662 20.406.615 5.863-.73 11.61-3.794 16.176-3.203 4.783-7.882 7.72-13.167 8.275a16.708 16.708 0 0 1-1.77.093M176.3 28.46c-.327 0-.657.02-.986.052-3.033.319-5.772 2.09-7.706 4.98-2.088 3.11-2.995 7.094-2.563 11.212.851 8.126 6.843 14.39 13.406 13.711 3.03-.318 5.769-2.087 7.706-4.983 2.085-3.11 2.994-7.09 2.563-11.209-.816-7.716-6.266-13.763-12.42-13.763m204.48 53.197a17.08 17.08 0 0 1-4.841-.7c-5.096-1.512-9.16-5.259-11.434-10.542-2.179-5.05-2.45-10.947-.772-16.598 2.934-9.893 11.236-16.805 20.192-16.805 1.64 0 3.266.236 4.838.706 10.26 3.044 15.738 15.22 12.203 27.14-2.934 9.892-11.233 16.799-20.187 16.799m3.142-37.126c-5.563 0-11.024 4.805-12.986 11.42-1.181 3.97-1.01 8.052.467 11.489 1.382 3.203 3.747 5.442 6.67 6.308a9.41 9.41 0 0 0 2.698.39c5.563 0 11.022-4.802 12.986-11.42 2.357-7.945-.846-15.926-7.137-17.794a9.412 9.412 0 0 0-2.698-.393"></path><path fill="#000000" d="M396.732 100.805c-5.425-10.349-28.378-20.967-39.853-20.379-8.294.434-27.846 10.967-32.024 18.414-.69 1.226-1.35 2.92-1.932 4.915-1.203-.173-2.464-.302-3.692-.461-.319-6.657-.134-15.64 1.297-18.316.44-.821 1.442-2.467 2.742-4.61 6.23-10.255 12.428-20.771 13.903-26.722 2.462-9.953-3.066-33.24-11.5-41.77-3.865-3.913-7.527-4.067-9.912-3.495-8.97 2.107-6.552 14.494-4.423 25.422 1.022 5.23 2.179 11.168 1.608 13.84-.803 3.77-7.16 13.294-10.635 15.929-4.519 3.434-17.576 4.25-24.387 2.376-5.211-1.437-13.271-13.354-14.395-19.758-.55-3.126 1.239-9.662 2.816-15.428 3.063-11.214 6.54-23.928-2.607-27.06-2.16-.742-5.528-.926-9.324 2.393-9.355 8.176-17.096 35.689-14.89 46.796 1.096 5.552 5.036 12.101 8.84 18.433 2.723 4.528 5.533 9.21 6.673 12.613.904 2.698 1.484 12.395 1.665 18.472-15.508 1.506-29.628 4.261-41.62 7.994a3.764 3.764 0 0 0-.209-1.39l-2.956-8.315c4.426 1.989 9.706 3.076 14.478.664 7.547-3.824 19.211-21.505 17.002-30.837-.972-4.11-4.244-6.478-8.977-6.497h-.036c-5.912 0-9.214 6.291-12.132 11.84-.904 1.717-2.203 4.184-3.066 5.22-2.035-.846-5.678-4.022-8.184-6.206-3.618-3.156-7.038-6.143-10.271-7.448-9.245-3.725-25.821 0-33.393 5.575-9.189 6.777-14.425 24.862-11.928 41.186 1.302 8.513 12.283 14.98 22.961 17.903-2.73 3.805-4.214 7.827-4.214 12.01 0 24.124 48.307 43.011 109.97 43.011 61.667 0 109.97-18.887 109.97-43.007 0-1.89-.326-3.737-.9-5.553 5.788-9.747 7.936-29.353 3.535-37.754m-196.971 15.433c-4.124-2.302-10.063-4.129-16.206-6.002-2.538-.778-5.612-1.714-6.926-2.261-.288-1.824.174-6.547 1.097-10.983l.12-.6a3.76 3.76 0 0 0-7.34-1.61c-3.426 15.619.025 18.165 1.16 19.003 1.491 1.105 4.2 1.962 9.7 3.635 2.387.73 6.467 1.975 10.01 3.294 1.56.58 3.014 1.173 4.173 1.739.863.423 1.57.835 2.025 1.214-1.167 2.395-5.736 2.681-7.818 2.632-.086 0-.168-.011-.256-.011a33.505 33.505 0 0 1-5.195-.517c-10.137-1.741-20.683-7.648-21.461-12.722-2.008-13.11 2.176-28.991 8.953-33.988 5.7-4.195 19.648-7.264 26.12-4.657 2.058.83 5.292 3.654 8.143 6.14 4.511 3.937 8.772 7.654 12.813 8.19 4.77.65 7.327-4.226 10.036-9.374 1.123-2.137 4.107-7.818 5.478-7.818 1.527.005 1.61.362 1.695.708 1.206 5.096-7.997 19.824-13.085 22.401-4.816 2.448-13.253-3.637-15.821-5.953a3.764 3.764 0 0 0-6.063 4.044l5.58 15.697 1.095 3.096c.154.423.38.791.649 1.116a116.479 116.479 0 0 0-8.676 3.587m52.691 38.728h-11.277v-11.069h11.277zm14.838-18.604h-11.275v-11.063h11.275zm-3.09-34.582c-.14-4.445-.63-16.024-2.04-20.228-1.398-4.184-4.29-9.002-7.356-14.098-3.475-5.78-7.069-11.758-7.912-16.025-1.717-8.664 5.324-33.43 12.464-39.67.313-.269 1.387-1.128 1.945-.942 2.472.847-.808 12.846-2.212 17.973-1.958 7.159-3.804 13.928-2.97 18.708 1.479 8.404 10.937 23.266 19.808 25.706 7.827 2.15 23.766 1.802 30.93-3.635 4.484-3.404 12.196-14.502 13.446-20.348.884-4.173-.314-10.33-1.586-16.844-.956-4.906-2.945-15.11-1.23-16.667.934-.225 2.063.67 2.84 1.462 6.401 6.475 11.434 27.076 9.552 34.68-1.321 5.335-9.23 18.365-13.032 24.623-1.401 2.308-2.476 4.088-2.945 4.973-2.481 4.645-2.462 15.181-2.231 20.994a282.626 282.626 0 0 0-27.533-1.338c-6.832-.01-13.486.23-19.939.676m43.534 44.1h-11.277v-11.068h11.277zm80.955-15.348c-.509 1.418-1.072 2.687-1.682 3.772-.45.797-.92 1.522-1.417 2.077a23.807 23.807 0 0 1-1.025 1.074c-5.574 5.456-18.464 13.442-25.491 12.379-1.844-.28-3.052-1.168-3.887-2.849 1.118-1.802 7.683-4.904 11.274-6.601 5.541-2.624 10.788-5.11 13.55-8.302a10.11 10.11 0 0 0 .928-1.231c.362-.585.709-1.278 1.035-2.036.467-1.088.893-2.324 1.275-3.637 1.415-4.865 2.223-10.736 2.223-13.64a3.757 3.757 0 0 0-3.759-3.758c-1.95 0-3.532 1.489-3.72 3.387-.01.121-.04.245-.04.368 0 2.231-.533 5.813-1.286 9.047-6.747-4.105-15.244-7.714-25.115-10.67l.863-1.294 3.898-5.852a3.75 3.75 0 0 0-4.203-5.681c-3.605 1.082-10.261 3.654-14.374 8.758-.12.151-.208.324-.313.478-.7 1.017-1.19 2.198-1.494 3.525a22.805 22.805 0 0 0-.484 3.64 81.553 81.553 0 0 0-.115 5.123c-.008 8.684-.695 11.22-3.039 11.31-.615.025-1.277-.057-2.055-1.332-2.052-3.357-2.233-10.266-1.436-16.357.164-1.258.37-2.475.612-3.623.283-1.333.605-2.577.967-3.646.319-.956.67-1.78 1.036-2.437 2.722-4.837 19.398-14.247 25.865-14.582 8.741-.5 28.818 8.767 32.804 16.365 2.632 5.03 1.58 17.934-1.395 26.225"></path></svg></svg>